<svg width="1280" height="682" xmlns="http://www.w3.org/2000/svg">
 <!-- Created with Method Draw - http://github.com/duopixel/Method-Draw/ -->

 <g>
  <title>background</title>
 </g>
 <g>
  <title>Layer 1</title>
   <path id="svg_60" transform="translate(240,-120) rotate(35)" d="m305.69,300.24193c1.27583,-1.01774 2.49602,-2.19105 3.57092,-3.2443l-32.20775,-0.48329l-4.41779,4.16204l-13.99566,-0.35747c1.75367,-1.89493 3.67476,-4.12096 5.09907,-5.79292l-5.06655,-5.62081l14.93306,0l3.0384,3.51192l32.88332,0l-4.07892,-3.50406c1.25881,-1.10426 3.12178,-2.57792 4.13237,-3.35058l11.05921,8.93073l-11.08436,9.06927l-3.86532,-3.32054l0,0z" fill-opacity="null" stroke-opacity="null" stroke-width="null" stroke="#ffffff" fill="#ffffff"/>
   <path id="svg_61" transform="translate(-190,230) rotate(-35)"  d="m305.69,445.24193c1.27583,-1.01774 2.49602,-2.19105 3.57092,-3.2443l-32.20775,-0.48329l-4.41779,4.16204l-13.99566,-0.35747c1.75367,-1.89493 3.67476,-4.12096 5.09907,-5.79292l-5.06655,-5.62081l14.93306,0l3.0384,3.51192l32.88332,0l-4.07892,-3.50406c1.25881,-1.10426 3.12178,-2.57792 4.13237,-3.35058l11.05921,8.93073l-11.08436,9.06927l-3.86532,-3.32054l0,0z" fill-opacity="null" stroke-opacity="null" stroke-width="null" stroke="#ffffff" fill="#ffffff"/>
   <path id="svg_62" d="m466.18776,361.24193c1.27583,-1.01774 2.49602,-2.19105 3.57092,-3.2443l-32.20775,-0.48329l-4.41779,4.16204l-13.99566,-0.35747c1.75367,-1.89493 3.67476,-4.12096 5.09907,-5.79292l-5.06655,-5.62081l14.93306,0l3.0384,3.51192l32.88332,0l-4.07892,-3.50406c1.25881,-1.10426 3.12178,-2.57792 4.13237,-3.35058l11.05921,8.93073l-11.08436,9.06927l-3.86532,-3.32054l0,0l0,0.00001z" fill="#ffffff" stroke="#ffffff" stroke-width="null" stroke-opacity="null" fill-opacity="null"  />


   <path id="svg_65" transform="translate(-30,440) rotate(-35)" d="m698.18776,300.24193c1.27583,-1.01774 2.49602,-2.19105 3.57092,-3.2443l-32.20775,-0.48329l-4.41779,4.16204l-13.99566,-0.35747c1.75367,-1.89493 3.67476,-4.12096 5.09907,-5.79292l-5.06655,-5.62081l14.93306,0l3.0384,3.51192l32.88332,0l-4.07892,-3.50406c1.25881,-1.10426 3.12178,-2.57792 4.13237,-3.35058l11.05921,8.93073l-11.08436,9.06927l-3.86532,-3.32054l0,0l0,0.00001z" fill="#ffffff" stroke="#ffffff" stroke-width="null" stroke-opacity="null" fill-opacity="null"  />
   <path id="svg_66" transform="translate(380,-310) rotate(35)" d="m706.18776,445.24193c1.27583,-1.01774 2.49602,-2.19105 3.57092,-3.2443l-32.20775,-0.48329l-4.41779,4.16204l-13.99566,-0.35747c1.75367,-1.89493 3.67476,-4.12096 5.09907,-5.79292l-5.06655,-5.62081l14.93306,0l3.0384,3.51192l32.88332,0l-4.07892,-3.50406c1.25881,-1.10426 3.12178,-2.57792 4.13237,-3.35058l11.05921,8.93073l-11.08436,9.06927l-3.86532,-3.32054l0,0l0,0.00001z" fill="#ffffff" stroke="#ffffff" stroke-width="null" stroke-opacity="null" fill-opacity="null"  />

   <path id="svg_63" transform="translate(330,-440) rotate(35)" d="m864.18776,300.24193c1.27583,-1.01774 2.49602,-2.19105 3.57092,-3.2443l-32.20775,-0.48329l-4.41779,4.16204l-13.99566,-0.35747c1.75367,-1.89493 3.67476,-4.12096 5.09907,-5.79292l-5.06655,-5.62081l14.93306,0l3.0384,3.51192l32.88332,0l-4.07892,-3.50406c1.25881,-1.10426 3.12178,-2.57792 4.13237,-3.35058l11.05921,8.93073l-11.08436,9.06927l-3.86532,-3.32054l0,0l0,0.00001z" fill="#ffffff" stroke="#ffffff" stroke-width="null" stroke-opacity="null" fill-opacity="null"  />
   <path id="svg_64" transform="translate(-100,560) rotate(-35)" d="m864.18776,445.24193c1.27583,-1.01774 2.49602,-2.19105 3.57092,-3.2443l-32.20775,-0.48329l-4.41779,4.16204l-13.99566,-0.35747c1.75367,-1.89493 3.67476,-4.12096 5.09907,-5.79292l-5.06655,-5.62081l14.93306,0l3.0384,3.51192l32.88332,0l-4.07892,-3.50406c1.25881,-1.10426 3.12178,-2.57792 4.13237,-3.35058l11.05921,8.93073l-11.08436,9.06927l-3.86532,-3.32054l0,0l0,0.00001z" fill="#ffffff" stroke="#ffffff" stroke-width="null" stroke-opacity="null" fill-opacity="null"  />


   <path id="svg_67" d="m1025.18776,361.24193c1.27583,-1.01773 2.49601,-2.19105 3.57091,-3.2443l-32.20775,-0.48329l-4.41779,4.16205l-13.99566,-0.35747c1.75367,-1.89493 3.67475,-4.12096 5.09907,-5.79293l-5.06655,-5.6208l14.93306,0l3.0384,3.51192l32.88333,0l-4.07892,-3.50406c1.25881,-1.10427 3.12178,-2.57793 4.13237,-3.35059l11.05921,8.93074l-11.08436,9.06927l-3.86533,-3.32054l0,0l0.00001,0z" fill="#ffffff" stroke="#ffffff" stroke-width="null" stroke-opacity="null" fill-opacity="null"  />

    
   <g clip-path="url(#clip0)" id="svg_201">
   <g clip-path="url(#clip0)" id="svg_202" name="任务1">
    <path stroke="#FFFFFF" d="m178,234c0,-29.271 23.505,-53 52.5,-53c28.995,0 52.5,23.729 52.5,53c0,29.271 -23.505,53 -52.5,53c-28.995,0 -52.5,-23.729 -52.5,-53z" fill="#FFFFFF" fill-rule="evenodd" fill-opacity="0.8" id="svg_9"/>
    <path stroke="#FFFFFF" d="m192,234.5c0,-21.263 17.237,-38.5 38.5,-38.5c21.263,0 38.5,17.237 38.5,38.5c0,21.263 -17.237,38.5 -38.5,38.5c-21.263,0 -38.5,-17.237 -38.5,-38.5z" fill="#FFFFFF" fill-rule="evenodd" fill-opacity="0.50196" id="svg_10"/>
    <path stroke="#FFFFFF" d="m239.69,247.808c0,0 0,0 -3.306,0.786c-0.331,0.157 -0.661,0.628 -0.496,1.1c0,0.314 0.496,0.471 0.826,0.471c0,0 0.166,0 0.166,0c0,0 0,0 3.306,-0.785c0.33,-0.158 0.661,-0.629 0.495,-0.943c0,-0.472 -0.495,-0.786 -0.991,-0.629zm-18.38,0c-0.496,-0.157 -0.991,0.157 -0.991,0.629c-0.166,0.314 0.165,0.785 0.495,0.943c0,0 0,0 3.306,0.785c0,0 0.166,0 0.166,0c0.33,0 0.826,-0.157 0.826,-0.471c0.165,-0.472 -0.165,-0.943 -0.496,-1.1c0,0 0,0 -3.306,-0.786zm9.19,-0.737c-1.469,0 -2.661,1.125 -2.661,2.514c0,1.389 1.192,2.514 2.661,2.514c1.47,0 2.661,-1.125 2.661,-2.514c0,-1.389 -1.191,-2.514 -2.661,-2.514zm-10.09,-28.429c-0.325,0 -0.651,0.16 -0.651,0.481c0,0 0,0 0,24.212c0,0.321 0.326,0.641 0.651,0.641c0,0 0,0 20.18,0c0.325,0 0.651,-0.32 0.651,-0.641l0,-24.212c0,-0.321 -0.326,-0.481 -0.651,-0.481c0,0 0,0 -20.18,0zm8.119,-2.708c-0.328,0 -0.493,0.166 -0.493,0.497c0,0.332 0.165,0.663 0.493,0.663c0,0 0,0 3.942,0c0.328,0 0.493,-0.331 0.493,-0.663c0,-0.331 -0.165,-0.497 -0.493,-0.497c0,0 0,0 -3.942,0zm-9.089,-1.934c0,0 0,0 22.12,0c1.301,0 2.44,0.961 2.44,2.242c0,0 0,0 0,36.516c0,1.281 -1.139,2.242 -2.44,2.242c0,0 0,0 -22.12,0c-1.301,0 -2.44,-0.961 -2.44,-2.242c0,0 0,0 0,-36.516c0,-1.281 1.139,-2.242 2.44,-2.242z" fill="#FFFFFF" fill-rule="evenodd" id="svg_14"/>
    <text stroke="#FFFFFF" x="176.627" y="162" font-size="28" font-weight="700" font-family="DengXian,DengXian_MSFontService,sans-serif" fill="#FFFFFF" id="svg_101">任务1</text>
   </g>
   <g clip-path="url(#clip0)" id="svg_203" name="任务2">
    <path stroke="#ffffff" d="m177,495c0,-29.271 23.505,-53 52.5,-53c28.995,0 52.5,23.729 52.5,53c0,29.271 -23.505,53 -52.5,53c-28.995,0 -52.5,-23.729 -52.5,-53z" fill="#FFFFFF" fill-rule="evenodd" fill-opacity="0.8" id="svg_15"/>
    <path stroke="#ffffff" d="m191,495c0,-21.539 17.237,-39 38.5,-39c21.263,0 38.5,17.461 38.5,39c0,21.539 -17.237,39 -38.5,39c-21.263,0 -38.5,-17.461 -38.5,-39z" fill="#FFFFFF" fill-rule="evenodd" fill-opacity="0.50196" id="svg_16"/>
    <path stroke="#ffffff" d="m237.849,507.984c0,0 0,0 -3.183,0.766c-0.318,0.153 -0.637,0.613 -0.478,1.073c0,0.307 0.478,0.46 0.796,0.46c0,0 0.159,0 0.159,0c0,0 0,0 3.184,-0.766c0.318,-0.154 0.637,-0.614 0.477,-0.92c0,-0.46 -0.477,-0.767 -0.955,-0.613zm-17.698,0c-0.478,-0.154 -0.955,0.153 -0.955,0.613c-0.16,0.306 0.159,0.766 0.477,0.92c0,0 0,0 3.184,0.766c0,0 0.159,0 0.159,0c0.318,0 0.796,-0.153 0.796,-0.46c0.159,-0.46 -0.16,-0.92 -0.478,-1.073c0,0 0,0 -3.183,-0.766zm8.849,-0.72c-1.415,0 -2.562,1.098 -2.562,2.453c0,1.355 1.147,2.453 2.562,2.453c1.415,0 2.562,-1.098 2.562,-2.453c0,-1.355 -1.147,-2.453 -2.562,-2.453zm-9.716,-27.736c-0.314,0 -0.627,0.157 -0.627,0.47c0,0 0,0 0,23.622c0,0.313 0.313,0.625 0.627,0.625c0,0 0,0 19.432,0c0.314,0 0.627,-0.312 0.627,-0.625l0,-23.622c0,-0.313 -0.313,-0.47 -0.627,-0.47c0,0 0,0 -19.432,0zm7.818,-2.641c-0.316,0 -0.474,0.162 -0.474,0.485c0,0.323 0.158,0.647 0.474,0.647c0,0 0,0 3.796,0c0.316,0 0.474,-0.324 0.474,-0.647c0,-0.323 -0.158,-0.485 -0.474,-0.485c0,0 0,0 -3.796,0zm-8.753,-1.887c0,0 0,0 21.302,0c1.253,0 2.349,0.938 2.349,2.188c0,0 0,0 0,35.624c0,1.25 -1.096,2.188 -2.349,2.188c0,0 0,0 -21.302,0c-1.253,0 -2.349,-0.938 -2.349,-2.188c0,0 0,0 0,-35.624c0,-1.25 1.096,-2.188 2.349,-2.188z" fill="#FFFFFF" fill-rule="evenodd" id="svg_20"/>
    <text stroke="#ffffff" x="184.627" y="586" font-size="28" font-weight="700" font-family="DengXian,DengXian_MSFontService,sans-serif" fill="#FFFFFF" id="svg_102">任务2</text>
   </g>
   <g clip-path="url(#clip0)" id="svg_204" name="任务3">
    <path stroke="#ffffff" d="m309,357.5c0,-28.995 23.505,-52.5 52.5,-52.5c28.995,0 52.5,23.505 52.5,52.5c0,28.995 -23.505,52.5 -52.5,52.5c-28.995,0 -52.5,-23.505 -52.5,-52.5z" fill="#FFFFFF" fill-rule="evenodd" fill-opacity="0.8" id="svg_21"/>
    <path stroke="#ffffff" d="m323,357.5c0,-21.263 17.237,-38.5 38.5,-38.5c21.263,0 38.5,17.237 38.5,38.5c0,21.263 -17.237,38.5 -38.5,38.5c-21.263,0 -38.5,-17.237 -38.5,-38.5z" fill="#FFFFFF" fill-rule="evenodd" fill-opacity="0.50196" id="svg_22"/>
    <path stroke="#ffffff" d="m369.849,370.808c0,0 0,0 -3.183,0.786c-0.318,0.157 -0.637,0.628 -0.478,1.1c0,0.314 0.478,0.471 0.796,0.471c0,0 0.159,0 0.159,0c0,0 0,0 3.184,-0.785c0.318,-0.158 0.637,-0.629 0.477,-0.943c0,-0.472 -0.477,-0.786 -0.955,-0.629zm-17.698,0c-0.478,-0.157 -0.955,0.157 -0.955,0.629c-0.16,0.314 0.159,0.785 0.477,0.943c0,0 0,0 3.184,0.785c0,0 0.159,0 0.159,0c0.318,0 0.796,-0.157 0.796,-0.471c0.159,-0.472 -0.16,-0.943 -0.478,-1.1c0,0 0,0 -3.183,-0.786zm8.849,-0.737c-1.415,0 -2.562,1.125 -2.562,2.514c0,1.389 1.147,2.514 2.562,2.514c1.415,0 2.562,-1.125 2.562,-2.514c0,-1.389 -1.147,-2.514 -2.562,-2.514zm-9.716,-28.429c-0.314,0 -0.627,0.16 -0.627,0.481c0,0 0,0 0,24.212c0,0.321 0.313,0.641 0.627,0.641c0,0 0,0 19.432,0c0.314,0 0.627,-0.32 0.627,-0.641l0,-24.212c0,-0.321 -0.313,-0.481 -0.627,-0.481c0,0 0,0 -19.432,0zm7.818,-2.708c-0.316,0 -0.474,0.166 -0.474,0.497c0,0.332 0.158,0.663 0.474,0.663c0,0 0,0 3.796,0c0.316,0 0.474,-0.331 0.474,-0.663c0,-0.331 -0.158,-0.497 -0.474,-0.497c0,0 0,0 -3.796,0zm-8.753,-1.934c0,0 0,0 21.302,0c1.253,0 2.349,0.961 2.349,2.242c0,0 0,0 0,36.516c0,1.281 -1.096,2.242 -2.349,2.242c0,0 0,0 -21.302,0c-1.253,0 -2.349,-0.961 -2.349,-2.242c0,0 0,0 0,-36.516c0,-1.281 1.096,-2.242 2.349,-2.242z" fill="#FFFFFF" fill-rule="evenodd" id="svg_26"/>
    <text stroke="#ffffff" y="283" x="310.627" font-size="28" font-weight="700" font-family="DengXian,DengXian_MSFontService,sans-serif" fill="#FFFFFF" id="svg_103">任务3</text>
   </g>
   <g clip-path="url(#clip0)" id="svg_205" name="任务4">
    <path stroke="#ffffff" d="m511.762,315.709c14.095,-17.564 35.048,-29.018 58.667,-30.545c2.666,0 4.571,-1.909 4.571,-4.582c0,0 0,0 0,0c0,-2.673 -2.286,-4.582 -4.952,-4.582c-26.667,1.527 -49.905,14.509 -65.524,33.982c-1.524,2.291 -1.143,5.345 1.143,6.491c0,0.382 0,0.382 0,0.382c2.285,1.145 4.571,0.763 6.095,-1.146z" fill="#ffffff" fill-rule="evenodd" id="svg_27"/>
    <path stroke="#ffffff" d="m656.794,366.702c0,11.965 -2.684,23.544 -7.671,33.965c-0.767,1.929 0,4.245 1.535,5.403c0,0 0,0 0,0c2.301,1.93 5.753,1.158 6.904,-1.544c5.37,-11.579 8.438,-24.315 8.438,-37.824c0,-46.316 -34.521,-84.527 -79.014,-90.316c-2.685,-0.386 -4.986,1.93 -4.986,4.632c0,0 0,0 0,0c0,2.315 1.534,4.245 3.836,4.631c39.89,5.018 70.958,39.369 70.958,81.053z" fill="#ffffff" fill-rule="evenodd" id="svg_28"/>
    <path stroke="#ffffff" d="m643.138,412c-18.11,26.45 -50.477,41.783 -86.312,34.117c-30.441,-6.517 -54.716,-30.667 -61.266,-60.95c-4.624,-21.084 -1.156,-41.4 8.091,-57.884c1.156,-1.916 0.771,-4.983 -1.541,-6.133c0,0 0,0 0,0c-2.312,-1.15 -5.009,-0.767 -6.55,1.533c-7.707,13.8 -11.56,29.517 -11.175,46.384c1.156,47.916 40.074,86.633 87.854,88.166c32.752,0.767 61.651,-15.333 78.22,-39.866c1.541,-1.917 1.156,-4.6 -0.771,-6.134c0,0 0,0 0,0c-1.927,-1.916 -5.009,-1.533 -6.55,0.767z" fill="#ffffff" fill-rule="evenodd" id="svg_29"/>
    <path stroke="#ffffff" d="m504,366.5c0,-39.488 31.788,-71.5 71,-71.5c39.212,0 71,32.012 71,71.5c0,39.488 -31.788,71.5 -71,71.5c-39.212,0 -71,-32.012 -71,-71.5z" fill="#FFFFFF" fill-rule="evenodd" fill-opacity="0.8" id="svg_30"/>
    <path stroke="#ffffff" d="m523,366.5c0,-28.995 23.281,-52.5 52,-52.5c28.719,0 52,23.505 52,52.5c0,28.995 -23.281,52.5 -52,52.5c-28.719,0 -52,-23.505 -52,-52.5z" fill="#FFFFFF" fill-rule="evenodd" fill-opacity="0.50196" id="svg_31"/>
    <path stroke="#ffffff" d="m583.849,379.808c0,0 0,0 -3.183,0.786c-0.318,0.157 -0.637,0.628 -0.478,1.1c0,0.314 0.478,0.471 0.796,0.471c0,0 0.159,0 0.159,0c0,0 0,0 3.184,-0.785c0.318,-0.158 0.637,-0.629 0.477,-0.943c0,-0.472 -0.477,-0.786 -0.955,-0.629zm-17.698,0c-0.478,-0.157 -0.955,0.157 -0.955,0.629c-0.16,0.314 0.159,0.785 0.477,0.943c0,0 0,0 3.184,0.785c0,0 0.159,0 0.159,0c0.318,0 0.796,-0.157 0.796,-0.471c0.159,-0.472 -0.16,-0.943 -0.478,-1.1c0,0 0,0 -3.183,-0.786zm8.849,-0.737c-1.415,0 -2.562,1.125 -2.562,2.514c0,1.389 1.147,2.514 2.562,2.514c1.415,0 2.562,-1.125 2.562,-2.514c0,-1.389 -1.147,-2.514 -2.562,-2.514zm-9.716,-28.429c-0.314,0 -0.627,0.16 -0.627,0.481c0,0 0,0 0,24.212c0,0.321 0.313,0.641 0.627,0.641c0,0 0,0 19.432,0c0.314,0 0.627,-0.32 0.627,-0.641l0,-24.212c0,-0.321 -0.313,-0.481 -0.627,-0.481c0,0 0,0 -19.432,0zm7.818,-2.708c-0.316,0 -0.474,0.166 -0.474,0.497c0,0.332 0.158,0.663 0.474,0.663c0,0 0,0 3.796,0c0.316,0 0.474,-0.331 0.474,-0.663c0,-0.331 -0.158,-0.497 -0.474,-0.497c0,0 0,0 -3.796,0zm-8.753,-1.934c0,0 0,0 21.302,0c1.253,0 2.349,0.961 2.349,2.242c0,0 0,0 0,36.516c0,1.281 -1.096,2.242 -2.349,2.242c0,0 0,0 -21.302,0c-1.253,0 -2.349,-0.961 -2.349,-2.242c0,0 0,0 0,-36.516c0,-1.281 1.096,-2.242 2.349,-2.242z" fill="#FFFFFF" fill-rule="evenodd" id="svg_32"/>
     <text id="svg_108" fill="#FFFFFF" font-family="DengXian,DengXian_MSFontService,sans-serif" font-weight="700" font-size="30" y="500" x="545" stroke="#ffffff">任务4</text>
   </g>
   <g clip-path="url(#clip0)" id="svg_206" name="任务5">
    <path stroke="#ffffff" d="m720,234c0,-29.271 23.729,-53 53,-53c29.271,0 53,23.729 53,53c0,29.271 -23.729,53 -53,53c-29.271,0 -53,-23.729 -53,-53z" fill="#FFFFFF" fill-rule="evenodd" fill-opacity="0.8" id="svg_33"/>
    <path stroke="#ffffff" d="m735,234.5c0,-21.263 17.237,-38.5 38.5,-38.5c21.263,0 38.5,17.237 38.5,38.5c0,21.263 -17.237,38.5 -38.5,38.5c-21.263,0 -38.5,-17.237 -38.5,-38.5z" fill="#FFFFFF" fill-rule="evenodd" fill-opacity="0.50196" id="svg_34"/>
    <path stroke="#ffffff" d="m781.849,247.808c0,0 0,0 -3.183,0.786c-0.318,0.157 -0.637,0.628 -0.478,1.1c0,0.314 0.478,0.471 0.796,0.471c0,0 0.159,0 0.159,0c0,0 0,0 3.184,-0.785c0.318,-0.158 0.637,-0.629 0.477,-0.943c0,-0.472 -0.477,-0.786 -0.955,-0.629zm-17.698,0c-0.478,-0.157 -0.955,0.157 -0.955,0.629c-0.16,0.314 0.159,0.785 0.477,0.943c0,0 0,0 3.184,0.785c0,0 0.159,0 0.159,0c0.318,0 0.796,-0.157 0.796,-0.471c0.159,-0.472 -0.16,-0.943 -0.478,-1.1c0,0 0,0 -3.183,-0.786zm8.849,-0.737c-1.415,0 -2.562,1.125 -2.562,2.514c0,1.389 1.147,2.514 2.562,2.514c1.415,0 2.562,-1.125 2.562,-2.514c0,-1.389 -1.147,-2.514 -2.562,-2.514zm-9.716,-28.429c-0.314,0 -0.627,0.16 -0.627,0.481c0,0 0,0 0,24.212c0,0.321 0.313,0.641 0.627,0.641c0,0 0,0 19.432,0c0.314,0 0.627,-0.32 0.627,-0.641l0,-24.212c0,-0.321 -0.313,-0.481 -0.627,-0.481c0,0 0,0 -19.432,0zm7.818,-2.708c-0.316,0 -0.474,0.166 -0.474,0.497c0,0.332 0.158,0.663 0.474,0.663c0,0 0,0 3.796,0c0.316,0 0.474,-0.331 0.474,-0.663c0,-0.331 -0.158,-0.497 -0.474,-0.497c0,0 0,0 -3.796,0zm-8.753,-1.934c0,0 0,0 21.302,0c1.253,0 2.349,0.961 2.349,2.242c0,0 0,0 0,36.516c0,1.281 -1.096,2.242 -2.349,2.242c0,0 0,0 -21.302,0c-1.253,0 -2.349,-0.961 -2.349,-2.242c0,0 0,0 0,-36.516c0,-1.281 1.096,-2.242 2.349,-2.242z" fill="#FFFFFF" fill-rule="evenodd" id="svg_38"/>
    <text stroke="#ffffff" y="165" x="723.627" font-size="28" font-weight="700" font-family="DengXian,DengXian_MSFontService,sans-serif" fill="#FFFFFF" id="svg_104">任务5</text>
   </g>
   <g clip-path="url(#clip0)" id="svg_207" name="任务6">
    <path stroke="#ffffff" d="m720,496c0,-29.271 23.729,-53 53,-53c29.271,0 53,23.729 53,53c0,29.271 -23.729,53 -53,53c-29.271,0 -53,-23.729 -53,-53z" fill="#FFFFFF" fill-rule="evenodd" fill-opacity="0.8" id="svg_39"/>
    <path stroke="#ffffff" d="m735,496c0,-21.539 17.237,-39 38.5,-39c21.263,0 38.5,17.461 38.5,39c0,21.539 -17.237,39 -38.5,39c-21.263,0 -38.5,-17.461 -38.5,-39z" fill="#FFFFFF" fill-rule="evenodd" fill-opacity="0.50196" id="svg_40"/>
    <path stroke="#ffffff" d="m781.849,508.984c0,0 0,0 -3.183,0.766c-0.318,0.153 -0.637,0.613 -0.478,1.073c0,0.307 0.478,0.46 0.796,0.46c0,0 0.159,0 0.159,0c0,0 0,0 3.184,-0.766c0.318,-0.154 0.637,-0.614 0.477,-0.92c0,-0.46 -0.477,-0.767 -0.955,-0.613zm-17.698,0c-0.478,-0.154 -0.955,0.153 -0.955,0.613c-0.16,0.306 0.159,0.766 0.477,0.92c0,0 0,0 3.184,0.766c0,0 0.159,0 0.159,0c0.318,0 0.796,-0.153 0.796,-0.46c0.159,-0.46 -0.16,-0.92 -0.478,-1.073c0,0 0,0 -3.183,-0.766zm8.849,-0.72c-1.415,0 -2.562,1.098 -2.562,2.453c0,1.355 1.147,2.453 2.562,2.453c1.415,0 2.562,-1.098 2.562,-2.453c0,-1.355 -1.147,-2.453 -2.562,-2.453zm-9.716,-27.736c-0.314,0 -0.627,0.157 -0.627,0.47c0,0 0,0 0,23.622c0,0.313 0.313,0.625 0.627,0.625c0,0 0,0 19.432,0c0.314,0 0.627,-0.312 0.627,-0.625l0,-23.622c0,-0.313 -0.313,-0.47 -0.627,-0.47c0,0 0,0 -19.432,0zm7.818,-2.641c-0.316,0 -0.474,0.162 -0.474,0.485c0,0.323 0.158,0.647 0.474,0.647c0,0 0,0 3.796,0c0.316,0 0.474,-0.324 0.474,-0.647c0,-0.323 -0.158,-0.485 -0.474,-0.485c0,0 0,0 -3.796,0zm-8.753,-1.887c0,0 0,0 21.302,0c1.253,0 2.349,0.938 2.349,2.188c0,0 0,0 0,35.624c0,1.25 -1.096,2.188 -2.349,2.188c0,0 0,0 -21.302,0c-1.253,0 -2.349,-0.938 -2.349,-2.188c0,0 0,0 0,-35.624c0,-1.25 1.096,-2.188 2.349,-2.188z" fill="#FFFFFF" fill-rule="evenodd" id="svg_44"/>
    <text stroke="#ffffff" y="581" x="718.627" font-size="28" font-weight="700" font-family="DengXian,DengXian_MSFontService,sans-serif" fill="#FFFFFF" id="svg_105">任务6</text>
   </g>
   <g clip-path="url(#clip0)" id="svg_208" name="任务7">
    <path stroke="#ffffff" d="m865,357.5c0,-28.995 23.729,-52.5 53,-52.5c29.271,0 53,23.505 53,52.5c0,28.995 -23.729,52.5 -53,52.5c-29.271,0 -53,-23.505 -53,-52.5z" fill="#FFFFFF" fill-rule="evenodd" fill-opacity="0.8" id="svg_45"/>
    <path stroke="#ffffff" d="m879,357.5c0,-21.263 17.461,-38.5 39,-38.5c21.539,0 39,17.237 39,38.5c0,21.263 -17.461,38.5 -39,38.5c-21.539,0 -39,-17.237 -39,-38.5z" fill="#FFFFFF" fill-rule="evenodd" fill-opacity="0.50196" id="svg_46"/>
    <path stroke="#ffffff" d="m926.849,370.808c0,0 0,0 -3.183,0.786c-0.318,0.157 -0.637,0.628 -0.478,1.1c0,0.314 0.478,0.471 0.796,0.471c0,0 0.159,0 0.159,0c0,0 0,0 3.184,-0.785c0.318,-0.158 0.637,-0.629 0.477,-0.943c0,-0.472 -0.477,-0.786 -0.955,-0.629zm-17.698,0c-0.478,-0.157 -0.955,0.157 -0.955,0.629c-0.16,0.314 0.159,0.785 0.477,0.943c0,0 0,0 3.184,0.785c0,0 0.159,0 0.159,0c0.318,0 0.796,-0.157 0.796,-0.471c0.159,-0.472 -0.16,-0.943 -0.478,-1.1c0,0 0,0 -3.183,-0.786zm8.849,-0.737c-1.415,0 -2.562,1.125 -2.562,2.514c0,1.389 1.147,2.514 2.562,2.514c1.415,0 2.562,-1.125 2.562,-2.514c0,-1.389 -1.147,-2.514 -2.562,-2.514zm-9.716,-28.429c-0.314,0 -0.627,0.16 -0.627,0.481c0,0 0,0 0,24.212c0,0.321 0.313,0.641 0.627,0.641c0,0 0,0 19.432,0c0.314,0 0.627,-0.32 0.627,-0.641l0,-24.212c0,-0.321 -0.313,-0.481 -0.627,-0.481c0,0 0,0 -19.432,0zm7.818,-2.708c-0.316,0 -0.474,0.166 -0.474,0.497c0,0.332 0.158,0.663 0.474,0.663c0,0 0,0 3.796,0c0.316,0 0.474,-0.331 0.474,-0.663c0,-0.331 -0.158,-0.497 -0.474,-0.497c0,0 0,0 -3.796,0zm-8.753,-1.934c0,0 0,0 21.302,0c1.253,0 2.349,0.961 2.349,2.242c0,0 0,0 0,36.516c0,1.281 -1.096,2.242 -2.349,2.242c0,0 0,0 -21.302,0c-1.253,0 -2.349,-0.961 -2.349,-2.242c0,0 0,0 0,-36.516c0,-1.281 1.096,-2.242 2.349,-2.242z" fill="#FFFFFF" fill-rule="evenodd" id="svg_50"/>
    <text stroke="#ffffff" y="279" x="866.627" font-size="28" font-weight="700" font-family="DengXian,DengXian_MSFontService,sans-serif" fill="#FFFFFF" id="svg_106">任务7</text>
   </g>
   <g clip-path="url(#clip0)" id="svg_209" name="任务8">
    <path stroke="#ffffff" d="m1044,357.5c0,-28.995 23.729,-52.5 53,-52.5c29.271,0 53,23.505 53,52.5c0,28.995 -23.729,52.5 -53,52.5c-29.271,0 -53,-23.505 -53,-52.5z" fill="#FFFFFF" fill-rule="evenodd" fill-opacity="0.8" id="svg_51"/>
    <path stroke="#ffffff" d="m1058,357.5c0,-21.263 17.461,-38.5 39,-38.5c21.539,0 39,17.237 39,38.5c0,21.263 -17.461,38.5 -39,38.5c-21.539,0 -39,-17.237 -39,-38.5z" fill="#FFFFFF" fill-rule="evenodd" fill-opacity="0.50196" id="svg_52"/>
    <path stroke="#ffffff" d="m1105.849,370.808c0,0 0,0 -3.183,0.786c-0.318,0.157 -0.637,0.628 -0.478,1.1c0,0.314 0.478,0.471 0.796,0.471c0,0 0.159,0 0.159,0c0,0 0,0 3.184,-0.785c0.318,-0.158 0.637,-0.629 0.477,-0.943c0,-0.472 -0.477,-0.786 -0.955,-0.629zm-17.698,0c-0.478,-0.157 -0.955,0.157 -0.955,0.629c-0.16,0.314 0.159,0.785 0.477,0.943c0,0 0,0 3.184,0.785c0,0 0.159,0 0.159,0c0.318,0 0.796,-0.157 0.796,-0.471c0.159,-0.472 -0.16,-0.943 -0.478,-1.1c0,0 0,0 -3.183,-0.786zm8.849,-0.737c-1.415,0 -2.562,1.125 -2.562,2.514c0,1.389 1.147,2.514 2.562,2.514c1.415,0 2.562,-1.125 2.562,-2.514c0,-1.389 -1.147,-2.514 -2.562,-2.514zm-9.716,-28.429c-0.314,0 -0.627,0.16 -0.627,0.481c0,0 0,0 0,24.212c0,0.321 0.313,0.641 0.627,0.641c0,0 0,0 19.432,0c0.314,0 0.627,-0.32 0.627,-0.641l0,-24.212c0,-0.321 -0.313,-0.481 -0.627,-0.481c0,0 0,0 -19.432,0zm7.818,-2.708c-0.316,0 -0.474,0.166 -0.474,0.497c0,0.332 0.158,0.663 0.474,0.663c0,0 0,0 3.796,0c0.316,0 0.474,-0.331 0.474,-0.663c0,-0.331 -0.158,-0.497 -0.474,-0.497c0,0 0,0 -3.796,0zm-8.753,-1.934c0,0 0,0 21.302,0c1.253,0 2.349,0.961 2.349,2.242c0,0 0,0 0,36.516c0,1.281 -1.096,2.242 -2.349,2.242c0,0 0,0 -21.302,0c-1.253,0 -2.349,-0.961 -2.349,-2.242c0,0 0,0 0,-36.516c0,-1.281 1.096,-2.242 2.349,-2.242z" fill="#FFFFFF" fill-rule="evenodd" id="svg_56"/>
    <text stroke="#ffffff" y="279" x="1026.627" font-size="28" font-weight="700" font-family="DengXian,DengXian_MSFontService,sans-serif" fill="#FFFFFF" id="svg_107">任务8</text>
   </g>
  </g>
 </g>
</svg>